HIERARCHY
ROOT Hips
{
	OFFSET 0.00 0.00 0.00
	CHANNELS 6 Xposition Yposition Zposition Xrotation Yrotation Zrotation
	JOINT Spine
	{
		OFFSET 0.00000 7.06766 0.00000
		CHANNELS 3 Xrotation Yrotation Zrotation
		JOINT Head
		{
			OFFSET 0.00000 15.03989 0.00000
			CHANNELS 3 Xrotation Yrotation Zrotation
			End Site
			{
				OFFSET 0.00000 4.52755 0.00000
			}
		}
		JOINT LeftShoulder
		{
			OFFSET 0.00000 10.53037 0.00000
			CHANNELS 3 Xrotation Yrotation Zrotation
			JOINT LeftArm
			{
				OFFSET 7.02886 0.00000 0.00000
				CHANNELS 3 Xrotation Yrotation Zrotation
				JOINT LeftForeArm
				{
					OFFSET 10.79770 0.00000 0.00000
					CHANNELS 3 Yrotation Zrotation Xrotation
					JOINT LeftHand
					{
						OFFSET 7.90744 0.00000 0.00000
						CHANNELS 3 Xrotation Yrotation Zrotation
						JOINT LeftHandThumb1
						{
							OFFSET 0.00000 0.00000 0.00000
							CHANNELS 3 Xrotation Zrotation Yrotation
							End Site
							{
								OFFSET 0.00000 0.00000 3.93700
							}
						}
						End Site
						{
							OFFSET 3.93700 0.00000 0.00000
						}
					}
				}
			}
		}
		JOINT RightShoulder
		{
			OFFSET 0.00000 10.53037 0.00000
			CHANNELS 3 Xrotation Yrotation Zrotation
			JOINT RightArm
			{
				OFFSET -7.02886 0.00000 0.00000
				CHANNELS 3 Xrotation Yrotation Zrotation
				JOINT RightForeArm
				{
					OFFSET -10.79770 0.00000 0.00000
					CHANNELS 3 Yrotation Zrotation Xrotation
					JOINT RightHand
					{
						OFFSET -7.90744 0.00000 0.00000
						CHANNELS 3 Xrotation Yrotation Zrotation
						JOINT RightHandThumb1
						{
							OFFSET 0.00000 0.00000 0.00000
							CHANNELS 3 Xrotation Zrotation Yrotation
							End Site
							{
								OFFSET 0.00000 0.00000 3.93700
							}
						}
						End Site
						{
							OFFSET -3.93700 0.00000 0.00000
						}
					}
				}
			}
		}
	}
	JOINT LeftUpLeg
	{
		OFFSET 4.01300 0.00000 0.00000
		CHANNELS 3 Xrotation Yrotation Zrotation
		JOINT LeftLeg
		{
			OFFSET 0.00000 -16.89976 0.00000
			CHANNELS 3 Xrotation Yrotation Zrotation
			JOINT LeftFoot
			{
				OFFSET 0.00000 -17.38918 0.00000
				CHANNELS 3 Xrotation Yrotation Zrotation
				JOINT LeftToeBase
				{
					OFFSET 0.00000 -1.27456 4.75673
					CHANNELS 3 Xrotation Yrotation Zrotation
					End Site
					{
						OFFSET 0.00000 0.00000 2.95275
					}
				}
			}
		}
	}
	JOINT RightUpLeg
	{
		OFFSET -4.01300 0.00000 0.00000
		CHANNELS 3 Xrotation Yrotation Zrotation
		JOINT RightLeg
		{
			OFFSET 0.00000 -16.89976 0.00000
			CHANNELS 3 Xrotation Yrotation Zrotation
			JOINT RightFoot
			{
				OFFSET 0.00000 -17.38918 0.00000
				CHANNELS 3 Xrotation Yrotation Zrotation
				JOINT RightToeBase
				{
					OFFSET 0.00000 -1.27456 4.75673
					CHANNELS 3 Xrotation Yrotation Zrotation
					End Site
					{
						OFFSET 0.00000 0.00000 2.95275
					}
				}
			}
		}
	}
}
MOTION
Frames: 11
Frame Time: 0.008333
 19.5371 35.8020 -22.0167 168.4430 1.2244 -179.5112 -25.2485 0.6498 5.6388 17.5298 1.0025 -3.8833 -56.8570 -30.3775 29.7434 -64.4395 -38.4064 -19.6300 -102.8351 -0.0000 -51.3100 0.5809 -2.7973 11.7364 33.1476 -0.0000 26.2537 -20.9273 12.4784 -44.1830 -84.7510 41.3712 21.1267 61.3582 0.0000 -32.1683 -2.8637 10.5073 15.3391 32.8623 0.0000 -24.3270 -2.5688 11.1143 -1.8717 -6.4433 -0.0000 -0.0000 -14.7373 30.4291 -1.7151 23.7609 0.0000 0.0000 -4.0185 -4.2066 -1.5870 -3.5812 -0.0000 0.0000 -15.6763 -29.9925 1.9169 22.9829 0.0000 -0.0000
 19.5427 35.8029 -22.0118 168.4375 1.1566 -179.5178 -25.2743 0.7599 5.7261 17.6807 0.9224 -3.9362 -57.0118 -30.4610 29.5949 -64.5435 -38.3885 -19.8018 -103.4269 -0.0000 -51.6066 0.5732 -2.8785 11.2674 33.1476 -0.0000 26.2537 -20.7029 12.3049 -44.4133 -85.0293 42.0024 21.1879 61.9970 0.0000 -32.7843 -3.0868 10.7823 16.0799 32.8623 0.0000 -24.3270 -2.5926 11.0505 -1.8585 -6.4474 0.0000 -0.0000 -14.7017 30.4363 -1.7438 23.7276 -0.0000 -0.0000 -4.0074 -4.2402 -1.5804 -3.6046 0.0000 0.0000 -15.6722 -29.9956 1.9152 23.0146 -0.0000 0.0000
 19.5482 35.8038 -22.0082 168.4349 1.0742 -179.5205 -25.3007 0.8180 5.7806 17.8363 0.8314 -3.9784 -57.0639 -30.5251 29.5153 -64.6732 -38.3873 -19.9363 -103.9562 -0.0000 -51.8446 0.5622 -2.9613 10.7554 33.1476 -0.0000 26.2537 -20.4942 12.1911 -44.5821 -85.2983 42.6648 21.2398 62.5147 0.0000 -33.1807 -3.3282 11.0887 16.8233 32.8623 0.0000 -24.3270 -2.6149 10.9785 -1.8504 -6.4424 0.0000 0.0000 -14.6832 30.4253 -1.7543 23.7263 0.0000 0.0000 -4.0131 -4.3716 -1.5784 -3.5944 0.0000 -0.0000 -15.5930 -29.9503 2.1173 22.7296 0.0000 0.0000
 19.5548 35.8063 -22.0048 168.4579 0.9995 -179.5251 -25.2927 0.8897 5.8537 17.9995 0.7881 -4.0422 -57.1566 -30.5670 29.3776 -64.7800 -38.4142 -20.0661 -104.4528 -0.0000 -52.0695 0.5698 -3.1098 10.3887 33.1476 -0.0000 26.2537 -20.0796 11.7508 -44.7040 -85.9868 43.5504 21.3669 62.7600 0.0000 -33.4710 -3.5863 11.4761 17.4851 32.8623 0.0000 -24.3270 -2.6058 10.8877 -1.8381 -6.4488 -0.0000 -0.0000 -14.6190 30.4530 -1.8207 23.6815 0.0000 0.0000 -3.9736 -4.3969 -1.5698 -3.6148 0.0000 0.0000 -15.5749 -29.9987 2.1420 22.7066 0.0000 0.0000
 19.5612 35.8074 -21.9998 168.4522 0.9127 -179.5315 -25.3073 0.8958 5.9111 18.1120 0.7769 -4.1192 -57.2100 -30.6269 29.2933 -64.8601 -38.4187 -20.1534 -104.9017 -0.0000 -52.3298 0.5590 -3.2076 9.8909 33.1476 -0.0000 26.2537 -19.8286 11.5313 -44.8506 -86.2921 44.3437 21.3193 62.9413 0.0000 -33.8188 -3.9047 12.0045 18.1685 32.8623 0.0000 -24.3270 -2.6340 10.8020 -1.8268 -6.4480 -0.0000 -0.0000 -14.5947 30.4523 -1.8290 23.6741 0.0000 -0.0000 -3.9698 -4.4358 -1.5621 -3.6200 0.0000 0.0000 -15.6522 -30.0151 1.9799 22.9956 0.0000 -0.0000
 19.5664 35.8067 -21.9963 168.4322 0.8180 -179.5491 -25.3368 0.8852 5.9397 18.1767 0.7524 -4.1035 -57.2552 -30.7730 29.2707 -64.8727 -38.3804 -20.2248 -105.3934 -0.0000 -52.5388 0.5540 -3.2159 9.7795 33.1476 -0.0000 26.2537 -19.9179 11.6394 -45.0356 -86.3289 44.8297 21.4652 63.1454 0.0000 -33.9324 -4.2548 12.4185 19.0832 32.8623 0.0000 -24.3270 -2.6787 10.7057 -1.8041 -6.4425 0.0000 0.0000 -14.5997 30.4486 -1.8075 23.7019 0.0000 -0.0000 -3.9732 -4.4785 -1.5462 -3.6369 0.0000 -0.0000 -15.6015 -30.0518 2.0811 22.7376 -0.0000 -0.0000
 19.5739 35.8083 -21.9930 168.4335 0.7338 -179.5564 -25.3482 0.8829 5.9976 18.2847 0.7479 -4.2048 -57.3094 -30.8098 29.1477 -64.9795 -38.4199 -20.3937 -105.8094 -0.0000 -52.9396 0.5529 -3.2979 9.5224 33.1476 -0.0000 26.2537 -19.6072 11.2657 -45.1850 -87.1587 45.5644 21.7621 63.0488 0.0000 -34.1435 -4.6152 12.6497 20.2351 32.8623 0.0000 -24.3270 -2.7039 10.6459 -1.7886 -6.4304 0.0000 0.0000 -14.5696 30.4379 -1.8328 23.6730 0.0000 -0.0000 -3.9630 -4.5319 -1.5333 -3.6393 -0.0000 -0.0000 -15.5965 -30.1040 2.0919 22.6004 -0.0000 0.0000
 19.5804 35.8075 -21.9897 168.4084 0.6506 -179.5665 -25.3774 0.8392 6.0012 18.3577 0.7915 -4.1658 -57.2687 -30.9124 29.1593 -65.0713 -38.4437 -20.4562 -106.1443 -0.0000 -53.2496 0.5391 -3.2985 9.2884 33.1476 -0.0000 26.2537 -19.7140 11.3268 -45.3542 -87.2968 45.9901 21.9696 63.1006 0.0000 -34.2848 -4.9794 12.9779 21.2042 32.8623 0.0000 -24.3270 -2.7426 10.5542 -1.7728 -6.4395 -0.0000 -0.0000 -14.5582 30.4418 -1.8139 23.6807 0.0000 0.0000 -3.9565 -4.4778 -1.5179 -3.6787 0.0000 -0.0000 -15.7090 -30.1945 1.9127 22.9975 0.0000 -0.0000
 19.5869 35.8088 -21.9868 168.4125 0.5845 -179.5681 -25.3803 0.7804 6.0255 18.4424 0.7135 -4.2475 -57.2888 -30.9783 29.0930 -65.0686 -38.5382 -20.5065 -106.4369 -0.0000 -53.4925 0.5410 -3.3666 9.1348 33.1476 -0.0000 26.2537 -19.5912 11.1084 -45.4752 -88.0638 46.5388 22.4530 62.9754 0.0000 -34.3598 -5.3129 13.1796 22.1885 32.8623 0.0000 -24.3270 -2.7623 10.4831 -1.7551 -6.4145 -0.0000 0.0000 -14.5297 30.4189 -1.8798 23.6463 0.0000 -0.0000 -3.9496 -4.4582 -1.5116 -3.6720 0.0000 -0.0000 -15.7318 -30.2671 1.8820 22.9902 -0.0000 0.0000
 19.5918 35.8082 -21.9831 168.4014 0.5263 -179.5662 -25.3916 0.6931 6.0243 18.4831 0.6354 -4.3093 -57.3029 -31.0719 29.0817 -65.0321 -38.6180 -20.5733 -106.6887 -0.0000 -53.6695 0.5427 -3.4110 9.0455 33.1476 -0.0000 26.2537 -19.5569 11.0932 -45.6197 -88.5810 46.8878 22.7858 62.9933 0.0000 -34.6227 -5.5974 13.1726 23.2708 32.8623 0.0000 -24.3270 -2.7683 10.3551 -1.7520 -6.4578 -0.0000 0.0000 -14.5047 30.5043 -1.8684 23.6342 0.0000 0.0000 -3.9687 -4.4601 -1.5111 -3.6481 0.0000 0.0000 -15.7739 -30.2965 1.7968 22.9652 0.0000 -0.0000
 19.5993 35.8091 -21.9802 168.4021 0.4752 -179.5730 -25.3920 0.6102 6.0318 18.5456 0.5763 -4.3762 -57.3432 -31.1380 29.0166 -65.0090 -38.7448 -20.6691 -106.8134 -0.0000 -53.9723 0.5528 -3.6032 8.7281 33.1476 -0.0000 26.2537 -19.5848 11.1233 -45.7627 -88.8748 47.2127 22.9909 63.0884 0.0000 -34.8489 -5.8222 13.2382 24.0021 32.8623 0.0000 -24.3270 -2.7802 10.3306 -1.7360 -6.4616 0.0000 0.0000 -14.4717 30.4789 -1.8847 23.6643 -0.0000 -0.0000 -3.9742 -4.4400 -1.4973 -3.6319 0.0000 0.0000 -15.7305 -30.3693 1.9145 22.7117 0.0000 -0.0000
